<svg width="1920" height="1080" viewBox="0 0 1920 1080" fill="none" xmlns="http://www.w3.org/2000/svg">
<rect width="1920" height="1080" fill="#202429"/>
<g opacity="0.1">
<path fill-rule="evenodd" clip-rule="evenodd" d="M1288.36 374C1281.53 374 1276 379.535 1276 386.362C1276 393.189 1281.53 398.724 1288.36 398.724C1295.19 398.724 1300.72 393.189 1300.72 386.362C1300.72 379.535 1295.19 374 1288.36 374ZM1272 386.362C1272 377.325 1279.33 370 1288.36 370C1297.4 370 1304.72 377.325 1304.72 386.362C1304.72 395.398 1297.4 402.724 1288.36 402.724C1279.33 402.724 1272 395.398 1272 386.362Z" fill="white"/>
<path fill-rule="evenodd" clip-rule="evenodd" d="M409.803 113.112C402.975 113.112 397.441 118.647 397.441 125.474C397.441 132.301 402.975 137.836 409.803 137.836C416.63 137.836 422.164 132.301 422.164 125.474C422.164 118.647 416.63 113.112 409.803 113.112ZM393.441 125.474C393.441 116.438 400.766 109.112 409.803 109.112C418.839 109.112 426.164 116.438 426.164 125.474C426.164 134.51 418.839 141.836 409.803 141.836C400.766 141.836 393.441 134.51 393.441 125.474Z" fill="white"/>
<path fill-rule="evenodd" clip-rule="evenodd" d="M161.362 444C154.535 444 149 449.535 149 456.362C149 463.189 154.535 468.724 161.362 468.724C168.189 468.724 173.724 463.189 173.724 456.362C173.724 449.535 168.189 444 161.362 444ZM145 456.362C145 447.325 152.325 440 161.362 440C170.398 440 177.724 447.325 177.724 456.362C177.724 465.398 170.398 472.724 161.362 472.724C152.325 472.724 145 465.398 145 456.362Z" fill="white"/>
<path fill-rule="evenodd" clip-rule="evenodd" d="M1686.36 544C1679.53 544 1674 549.535 1674 556.362C1674 563.189 1679.53 568.724 1686.36 568.724C1693.19 568.724 1698.72 563.189 1698.72 556.362C1698.72 549.535 1693.19 544 1686.36 544ZM1670 556.362C1670 547.325 1677.33 540 1686.36 540C1695.4 540 1702.72 547.325 1702.72 556.362C1702.72 565.398 1695.4 572.724 1686.36 572.724C1677.33 572.724 1670 565.398 1670 556.362Z" fill="white"/>
<path fill-rule="evenodd" clip-rule="evenodd" d="M1634.96 830.419C1635.74 829.641 1635.74 828.375 1634.97 827.591C1634.19 826.807 1632.92 826.802 1632.14 827.581L1619.77 839.857L1607.41 827.581C1606.63 826.802 1605.36 826.807 1604.58 827.591C1603.8 828.375 1603.81 829.641 1604.59 830.419L1616.93 842.675L1604.59 854.931C1603.81 855.709 1603.8 856.975 1604.58 857.759C1605.36 858.543 1606.63 858.548 1607.41 857.769L1619.77 845.493L1632.14 857.769C1632.92 858.548 1634.19 858.543 1634.97 857.759C1635.74 856.975 1635.74 855.709 1634.96 854.931L1622.61 842.675L1634.96 830.419Z" fill="white"/>
<path fill-rule="evenodd" clip-rule="evenodd" d="M282.956 760.419C283.74 759.641 283.744 758.375 282.966 757.591C282.188 756.807 280.921 756.802 280.137 757.581L267.773 769.857L255.409 757.581C254.625 756.802 253.359 756.807 252.581 757.591C251.802 758.375 251.807 759.641 252.591 760.419L264.935 772.675L252.591 784.931C251.807 785.709 251.802 786.975 252.581 787.759C253.359 788.543 254.625 788.548 255.409 787.769L267.773 775.493L280.137 787.769C280.921 788.548 282.188 788.543 282.966 787.759C283.744 786.975 283.74 785.709 282.956 784.931L270.612 772.675L282.956 760.419Z" fill="white"/>
<path fill-rule="evenodd" clip-rule="evenodd" d="M1085.72 146H1073C1070.79 146 1069 147.791 1069 150V162.724C1069 164.933 1070.79 166.724 1073 166.724H1085.72C1087.93 166.724 1089.72 164.933 1089.72 162.724V150C1089.72 147.791 1087.93 146 1085.72 146ZM1073 142C1068.58 142 1065 145.582 1065 150V162.724C1065 167.142 1068.58 170.724 1073 170.724H1085.72C1090.14 170.724 1093.72 167.142 1093.72 162.724V150C1093.72 145.582 1090.14 142 1085.72 142H1073Z" fill="white"/>
<path fill-rule="evenodd" clip-rule="evenodd" d="M615.724 917H603C600.791 917 599 918.791 599 921V933.724C599 935.933 600.791 937.724 603 937.724H615.724C617.933 937.724 619.724 935.933 619.724 933.724V921C619.724 918.791 617.933 917 615.724 917ZM603 913C598.582 913 595 916.582 595 921V933.724C595 938.142 598.582 941.724 603 941.724H615.724C620.142 941.724 623.724 938.142 623.724 933.724V921C623.724 916.582 620.142 913 615.724 913H603Z" fill="white"/>
<path d="M1104.09 858V859.981C1103.35 859.981 1102.68 860.056 1102.08 860.206C1101.49 860.346 1101.02 860.591 1100.69 860.941C1100.36 861.291 1100.22 861.771 1100.28 862.381L1100.92 868.533C1101.05 869.793 1100.87 870.733 1100.37 871.353C1099.89 871.974 1099.13 872.379 1098.09 872.569C1099.15 872.759 1099.92 873.149 1100.4 873.739C1100.89 874.319 1101.06 875.274 1100.92 876.605L1100.28 882.756C1100.22 883.377 1100.36 883.862 1100.69 884.212C1101.02 884.562 1101.49 884.807 1102.08 884.947C1102.67 885.087 1103.34 885.157 1104.09 885.157V887.137C1102.96 887.137 1101.9 887.002 1100.92 886.732C1099.93 886.462 1099.16 885.987 1098.59 885.307C1098.03 884.637 1097.82 883.687 1097.96 882.456L1098.56 876.755C1098.64 876.075 1098.58 875.499 1098.36 875.029C1098.16 874.549 1097.72 874.189 1097.04 873.949C1096.36 873.699 1095.35 873.574 1094 873.574V871.563C1095.35 871.563 1096.36 871.443 1097.04 871.203C1097.72 870.963 1098.16 870.608 1098.36 870.138C1098.58 869.668 1098.64 869.093 1098.56 868.413L1097.96 862.681C1097.83 861.451 1098.04 860.501 1098.59 859.83C1099.16 859.15 1099.93 858.675 1100.92 858.405C1101.9 858.135 1102.96 858 1104.09 858Z" fill="white"/>
<path d="M1113.05 858C1114.18 858 1115.23 858.135 1116.22 858.405C1117.21 858.675 1117.98 859.15 1118.55 859.83C1119.11 860.501 1119.32 861.451 1119.18 862.681L1118.58 868.413C1118.47 869.433 1118.73 870.213 1119.38 870.753C1120.02 871.293 1121.27 871.563 1123.14 871.563V873.574C1121.28 873.574 1120.03 873.849 1119.38 874.399C1118.73 874.949 1118.47 875.735 1118.58 876.755L1119.18 882.456C1119.31 883.687 1119.09 884.637 1118.53 885.307C1117.98 885.987 1117.21 886.462 1116.22 886.732C1115.23 887.002 1114.18 887.137 1113.05 887.137V885.157C1113.78 885.157 1114.45 885.087 1115.04 884.947C1115.65 884.807 1116.11 884.562 1116.45 884.212C1116.78 883.862 1116.91 883.377 1116.85 882.756L1116.22 876.605C1116.08 875.274 1116.26 874.319 1116.76 873.739C1117.28 873.159 1118.15 872.779 1119.38 872.599C1118.19 872.399 1117.33 871.989 1116.81 871.368C1116.29 870.738 1116.09 869.793 1116.22 868.533L1116.85 862.381C1116.91 861.771 1116.78 861.291 1116.45 860.941C1116.11 860.591 1115.65 860.346 1115.06 860.206C1114.46 860.056 1113.79 859.981 1113.05 859.981V858Z" fill="white"/>
<path d="M233.089 215V216.981C232.354 216.981 231.684 217.056 231.08 217.206C230.486 217.346 230.023 217.591 229.691 217.941C229.358 218.291 229.223 218.771 229.283 219.381L229.917 225.533C230.048 226.793 229.867 227.733 229.374 228.353C228.89 228.974 228.13 229.379 227.093 229.569C228.15 229.759 228.92 230.149 229.404 230.739C229.887 231.319 230.058 232.274 229.917 233.605L229.283 239.756C229.223 240.377 229.358 240.862 229.691 241.212C230.023 241.562 230.486 241.807 231.08 241.947C231.674 242.087 232.344 242.157 233.089 242.157V244.137C231.961 244.137 230.904 244.002 229.917 243.732C228.931 243.462 228.155 242.987 227.591 242.307C227.028 241.637 226.816 240.687 226.957 239.456L227.561 233.755C227.642 233.075 227.576 232.499 227.365 232.029C227.163 231.549 226.72 231.189 226.036 230.949C225.361 230.699 224.349 230.574 223 230.574V228.563C224.349 228.563 225.361 228.443 226.036 228.203C226.72 227.963 227.163 227.608 227.365 227.138C227.576 226.668 227.642 226.093 227.561 225.413L226.957 219.681C226.826 218.451 227.038 217.501 227.591 216.83C228.155 216.15 228.931 215.675 229.917 215.405C230.904 215.135 231.961 215 233.089 215Z" fill="white"/>
<path d="M242.049 215C243.176 215 244.233 215.135 245.22 215.405C246.207 215.675 246.982 216.15 247.546 216.83C248.11 217.501 248.321 218.451 248.18 219.681L247.576 225.413C247.466 226.433 247.732 227.213 248.377 227.753C249.021 228.293 250.275 228.563 252.137 228.563V230.574C250.285 230.574 249.031 230.849 248.377 231.399C247.732 231.949 247.466 232.735 247.576 233.755L248.18 239.456C248.311 240.687 248.095 241.637 247.531 242.307C246.977 242.987 246.207 243.462 245.22 243.732C244.233 244.002 243.176 244.137 242.049 244.137V242.157C242.784 242.157 243.448 242.087 244.042 241.947C244.646 241.807 245.114 241.562 245.447 241.212C245.779 240.862 245.915 240.377 245.855 239.756L245.22 233.605C245.079 232.274 245.26 231.319 245.764 230.739C246.277 230.159 247.148 229.779 248.377 229.599C247.189 229.399 246.333 228.989 245.809 228.368C245.286 227.738 245.089 226.793 245.22 225.533L245.855 219.381C245.915 218.771 245.779 218.291 245.447 217.941C245.114 217.591 244.651 217.346 244.057 217.206C243.463 217.056 242.794 216.981 242.049 216.981V215Z" fill="white"/>
<path d="M1605 159.601V125H1614.33V127.694H1607.96V156.943H1614.33V159.601H1605Z" fill="white"/>
<path d="M1635.96 125V159.601H1626.63V156.962H1633V127.694H1626.63V125H1635.96Z" fill="white"/>
<path d="M663.745 527.817L665.404 530.455L650.948 539.313L665.404 548.252L663.561 550.768L648 541.052V537.533L663.745 527.817Z" fill="white"/>
<path d="M682.059 556.332L679.274 555.105L696.801 519L699.545 520.35L682.059 556.332Z" fill="white"/>
<path d="M715.114 527.817L730.86 537.533V541.052L715.319 550.768L713.456 548.232L727.911 539.313L713.456 530.415L715.114 527.817Z" fill="white"/>
</g>
</svg>
