<svg xmlns="http://www.w3.org/2000/svg" viewBox="0 0 201.23 194.37"><defs><style>.cls-1{fill:#262a2d;}.cls-2,.cls-3{fill:#3c4447;}.cls-3,.cls-4{stroke:#3c4447;}.cls-3,.cls-7,.cls-8{stroke-linecap:round;stroke-linejoin:round;}.cls-3,.cls-4,.cls-8{stroke-width:3px;}.cls-4{fill:none;stroke-miterlimit:10;}.cls-5{fill:#fdd835;}.cls-6,.cls-8{fill:#3d53ff;}.cls-7{fill:#515ca7;stroke:#394876;stroke-width:2px;stroke-dasharray:398 12 1000 16 150;}.cls-8{stroke:#1b42bf;}.cls-9{fill:#e4e8ff;}</style></defs><title>uwcs-shield-screen</title><g id="Layer_4" data-name="Layer 4"><path class="cls-1" d="M107.72,203.4a1.49,1.49,0,0,1-.55-.1C72.6,189.82,56.23,166,48.59,148.4c-8.28-19.08-8.37-34.74-8.37-35.4V13.53a1.5,1.5,0,0,1,1.5-1.5,1.43,1.43,0,0,1,.64.15l66.07,31.53,64.63-31.53a1.5,1.5,0,0,1,1.45.08,1.49,1.49,0,0,1,.71,1.27V113c0,.66-.1,16.32-8.38,35.4-7.64,17.6-24,41.42-58.58,54.9A1.44,1.44,0,0,1,107.72,203.4Z" transform="translate(-7.6 -10.53)"/><path class="cls-2" d="M173.72,13.53V113s0,63.17-66,88.9c-66-25.73-66-88.9-66-88.9V13.53l66.71,31.84,65.29-31.84m0-3a3.07,3.07,0,0,0-1.32.3L108.42,42,43,10.82a3.07,3.07,0,0,0-1.29-.29,3,3,0,0,0-1.6.46,3,3,0,0,0-1.4,2.54V113c0,.67.09,16.64,8.49,36,7.76,17.87,24.36,42,59.42,55.71a3.07,3.07,0,0,0,2.18,0C143.86,191,160.46,166.86,168.22,149c8.4-19.35,8.5-35.32,8.5-36V13.53A3,3,0,0,0,175.31,11a3,3,0,0,0-1.59-.46Z" transform="translate(-7.6 -10.53)"/><polygon class="cls-3" points="66.83 28.38 41.9 53.31 41.9 55.78 68.5 29.18 66.83 28.38"/><path class="cls-3" d="M107.72,192.72c23.32-9.85,39.3-25.88,48.95-47.67A95.38,95.38,0,0,0,162,129.51l-60.63,60.63C103.18,191,105.77,191.9,107.72,192.72Z" transform="translate(-7.6 -10.53)"/><path class="cls-2" d="M88.14,182.36,164.5,106V80.4L74.37,170.53A90.67,90.67,0,0,0,88.14,182.36Z" transform="translate(-7.6 -10.53)"/><path class="cls-4" d="M88.14,182.36,164.5,106V80.4L74.37,170.53A90.67,90.67,0,0,0,88.14,182.36Z" transform="translate(-7.6 -10.53)"/><path class="cls-3" d="M107.76,54.82,87.91,45.34,49.5,83.75V113c0,.31.22,17.59,10.26,37L164.5,45.25V27.14Z" transform="translate(-7.6 -10.53)"/><path class="cls-5" d="M107.72,85.05a11.61,11.61,0,1,1,11.61-11.61A11.62,11.62,0,0,1,107.72,85.05Z" transform="translate(-7.6 -10.53)"/><circle class="cls-5" cx="79.95" cy="83.18" r="11.61"/><circle class="cls-6" cx="100.12" cy="104.41" r="11.61"/><circle class="cls-6" cx="120.5" cy="124.79" r="11.61"/><polygon class="cls-7" points="182.86 148.74 184.98 144.25 100.12 144.25 16.25 144.25 18.37 148.74 1.5 148.74 17.13 183.35 39.95 183.35 37.65 178.37 100.12 178.37 163.59 178.37 161.28 183.35 184.1 183.35 199.73 148.74 182.86 148.74"/><polygon class="cls-8" points="182.86 148.74 184.98 144.25 100.12 144.25 16.25 144.25 18.37 148.74 1.5 148.74 17.13 183.35 39.95 183.35 37.65 178.37 100.12 178.37 163.59 178.37 161.28 183.35 184.1 183.35 199.73 148.74 182.86 148.74"/><path class="cls-9" d="M63.73,176.72a4,4,0,0,0,3,1.2,3.71,3.71,0,0,0,2.86-1.19,4.51,4.51,0,0,0,1.1-3.19V161.18h5.49v12.36A9.59,9.59,0,0,1,75,178.32a7.83,7.83,0,0,1-3.3,3.17,10.77,10.77,0,0,1-5,1.11,11,11,0,0,1-5.06-1.11,8,8,0,0,1-3.36-3.17,9.39,9.39,0,0,1-1.18-4.78V161.18h5.49v12.36A4.36,4.36,0,0,0,63.73,176.72Z" transform="translate(-7.6 -10.53)"/><path class="cls-9" d="M108.67,161.18h5.64l-7.11,21h-5.64l-4-14.31-4,14.31H87.88l-7.08-21h5.91l4.14,15.36L95,161.18h5.37l4.2,15.36Z" transform="translate(-7.6 -10.53)"/><path class="cls-9" d="M131.74,166.26a5.81,5.81,0,0,0-2.79-.76,5.47,5.47,0,0,0-2.9.79,5.62,5.62,0,0,0-2,2.19,6.8,6.8,0,0,0,0,6.21,5.62,5.62,0,0,0,2,2.19,5.48,5.48,0,0,0,2.9.8,6.37,6.37,0,0,0,2.7-.66,8.56,8.56,0,0,0,2.52-1.8l3.21,3.45a12.85,12.85,0,0,1-4.07,2.86,11.25,11.25,0,0,1-10.3-.37,10.52,10.52,0,0,1-4-3.93,10.94,10.94,0,0,1-1.44-5.58,10.49,10.49,0,0,1,5.5-9.39,12,12,0,0,1,10.37-.44,11.46,11.46,0,0,1,3.87,2.66l-3.18,3.84A7.86,7.86,0,0,0,131.74,166.26Z" transform="translate(-7.6 -10.53)"/><path class="cls-9" d="M153.62,165.89a10.53,10.53,0,0,0-3.19-.63,3,3,0,0,0-1.61.37,1.22,1.22,0,0,0-.58,1.1,1.49,1.49,0,0,0,.51,1.15,3.9,3.9,0,0,0,1.26.75c.5.19,1.24.44,2.22.74a28.77,28.77,0,0,1,3.61,1.26,6.32,6.32,0,0,1,2.45,1.93,5.39,5.39,0,0,1,1,3.41,5.8,5.8,0,0,1-1.11,3.58,6.75,6.75,0,0,1-3,2.24,11.8,11.8,0,0,1-4.3.75,15.6,15.6,0,0,1-5.21-.92,14.21,14.21,0,0,1-4.48-2.5l2.13-4.29a13.23,13.23,0,0,0,3.76,2.31,10.3,10.3,0,0,0,3.86.9,3.56,3.56,0,0,0,1.93-.45,1.47,1.47,0,0,0,.71-1.32,1.56,1.56,0,0,0-.53-1.2,3.87,3.87,0,0,0-1.32-.77c-.53-.19-1.27-.41-2.23-.67a27.51,27.51,0,0,1-3.57-1.22,6.33,6.33,0,0,1-2.42-1.86,5.1,5.1,0,0,1-1-3.31,5.79,5.79,0,0,1,1-3.42,6.6,6.6,0,0,1,2.94-2.27,11.45,11.45,0,0,1,4.43-.79,16,16,0,0,1,4.5.64,14.82,14.82,0,0,1,3.9,1.73l-2.07,4.38A18.49,18.49,0,0,0,153.62,165.89Z" transform="translate(-7.6 -10.53)"/></g></svg>